HIERARCHY
ROOT __0
{
	OFFSET 0.0 0.0 0.0
	CHANNELS 0
	JOINT Root
	{
		OFFSET 0.000000 0.000000 0.000000
		CHANNELS 6 Xposition Yposition Zposition Xrotation Yrotation Zrotation
		JOINT LegFront0.R
		{
			OFFSET -0.418178 -0.418153 0.176516
			CHANNELS 6 Xposition Yposition Zposition Xrotation Yrotation Zrotation
			JOINT LegFront1.R
			{
				OFFSET -0.323942 0.000000 0.000000
				CHANNELS 3 Xrotation Yrotation Zrotation
				JOINT LegFront2.R
				{
					OFFSET -0.647048 0.000000 -0.000230
					CHANNELS 3 Xrotation Yrotation Zrotation
					End Site
					{
						OFFSET -0.000003 0.000000 -0.916380
					}
				}
			}
		}
		JOINT LegFront0.L
		{
			OFFSET 0.418178 -0.418153 0.176516
			CHANNELS 6 Xposition Yposition Zposition Xrotation Yrotation Zrotation
			JOINT LegFront1.L
			{
				OFFSET 0.323942 0.000000 0.000000
				CHANNELS 3 Xrotation Yrotation Zrotation
				JOINT LegFront2.L
				{
					OFFSET 0.647048 0.000000 -0.000230
					CHANNELS 3 Xrotation Yrotation Zrotation
					End Site
					{
						OFFSET 0.000003 0.000000 -0.916380
					}
				}
			}
		}
		JOINT LegBack0.R
		{
			OFFSET -0.418178 0.418206 0.176516
			CHANNELS 6 Xposition Yposition Zposition Xrotation Yrotation Zrotation
			JOINT LegBack1.R
			{
				OFFSET -0.323942 0.000000 0.000000
				CHANNELS 3 Xrotation Yrotation Zrotation
				JOINT LegBack2.R
				{
					OFFSET -0.647048 0.000000 -0.000230
					CHANNELS 3 Xrotation Yrotation Zrotation
					End Site
					{
						OFFSET -0.000003 0.000000 -0.916380
					}
				}
			}
		}
		JOINT LegBack0.L
		{
			OFFSET 0.418178 0.418206 0.176516
			CHANNELS 6 Xposition Yposition Zposition Xrotation Yrotation Zrotation
			JOINT LegBack1.L
			{
				OFFSET 0.323942 0.000000 0.000000
				CHANNELS 3 Xrotation Yrotation Zrotation
				JOINT LegBack2.L
				{
					OFFSET 0.647048 0.000000 -0.000230
					CHANNELS 3 Xrotation Yrotation Zrotation
					End Site
					{
						OFFSET 0.000003 0.000000 -0.916380
					}
				}
			}
		}
	}
	JOINT LegFrontIK.L
	{
		OFFSET 1.389170 -0.418153 -0.740094
		CHANNELS 6 Xposition Yposition Zposition Xrotation Yrotation Zrotation
		End Site
		{
			OFFSET 0.000000 0.000000 -0.259647
		}
	}
	JOINT LegFrontIK.R
	{
		OFFSET -1.389170 -0.418153 -0.740094
		CHANNELS 6 Xposition Yposition Zposition Xrotation Yrotation Zrotation
		End Site
		{
			OFFSET 0.000000 0.000000 -0.259647
		}
	}
	JOINT LegBackIK.L
	{
		OFFSET 1.389170 0.418206 -0.740094
		CHANNELS 6 Xposition Yposition Zposition Xrotation Yrotation Zrotation
		End Site
		{
			OFFSET 0.000000 0.000000 -0.259647
		}
	}
	JOINT LegBackIK.R
	{
		OFFSET -1.389170 0.418206 -0.740094
		CHANNELS 6 Xposition Yposition Zposition Xrotation Yrotation Zrotation
		End Site
		{
			OFFSET 0.000000 0.000000 -0.259647
		}
	}
}
MOTION
Frames: 13
Frame Time: 0.100000
0.000011 0.000003 -0.228058 -0.000000 0.000000 -0.000000 -0.418178 -0.418153 0.176516 0.000023 -0.000012 32.008800 0.001400 20.634806 -0.007681 0.000055 -20.990372 0.000012 0.418178 -0.418153 0.176516 0.000023 0.000012 -32.009682 0.001402 -20.640072 0.007685 0.000056 20.999417 -0.000009 -0.418178 0.418206 0.176516 -0.000013 0.000022 -32.000929 0.001401 20.634749 -0.007681 0.000057 -20.990570 0.000009 0.418178 0.418206 0.176516 -0.000013 -0.000022 32.001796 0.001401 -20.634737 0.007683 0.000055 20.991970 -0.000009 1.201610 -0.907799 -0.740094 -0.000000 0.000000 -0.000003 -1.201615 -0.907798 -0.740094 -0.000000 0.000000 0.000003 1.201610 0.907850 -0.740094 -0.000000 0.000000 -0.000003 -1.201615 0.907850 -0.740094 -0.000000 0.000000 0.000003 
0.000011 0.000003 -0.228058 -0.000000 0.000000 1.250000 -0.418178 -0.418153 0.176516 0.000021 -0.000011 29.983786 0.001399 20.636133 -0.007683 0.000056 -20.796131 0.000008 0.418178 -0.418153 0.176516 0.000025 0.000012 -34.043531 0.001402 -20.636493 0.007682 0.000052 21.163497 -0.000016 -0.418178 0.418206 0.176516 -0.000014 0.000024 -34.034816 0.001401 20.632803 -0.007684 0.000056 -21.156562 0.000012 0.418178 0.418206 0.176516 -0.000013 -0.000020 29.976703 0.001401 -20.636078 0.007685 0.000056 20.797689 -0.000007 1.201610 -0.907799 -0.740094 -0.000000 0.000000 -0.000003 -1.201615 -0.907798 -0.740094 -0.000000 0.000000 0.000003 1.201610 0.907850 -0.740094 -0.000000 0.000000 -0.000003 -1.201615 0.907850 -0.740094 -0.000000 0.000000 0.000003 
0.000011 0.000003 -0.228058 -0.000000 0.000000 1.250000 -0.418178 -0.418153 0.176516 0.000021 -0.000011 29.983786 0.001399 20.636133 -0.007683 0.000056 -20.796131 0.000008 0.418178 -0.418153 0.176516 0.000025 0.000012 -34.043531 0.001402 -20.636493 0.007682 0.000052 21.163497 -0.000016 -0.418178 0.418206 0.176516 -0.000014 0.000024 -34.034816 0.001401 20.632803 -0.007684 0.000056 -21.156562 0.000012 0.418178 0.418206 0.176516 -0.000013 -0.000020 29.976703 0.001401 -20.636078 0.007685 0.000056 20.797689 -0.000007 1.201610 -0.907799 -0.740094 -0.000000 0.000000 -0.000003 -1.201615 -0.907798 -0.740094 -0.000000 0.000000 0.000003 1.201610 0.907850 -0.740094 -0.000000 0.000000 -0.000003 -1.201615 0.907850 -0.740094 -0.000000 0.000000 0.000003 
0.000011 0.000003 -0.228058 -0.000000 0.000000 3.750001 -0.418178 -0.418153 0.176516 0.000018 -0.000011 25.965126 0.001401 20.635176 -0.007681 0.000054 -20.322982 0.000012 0.418178 -0.418153 0.176516 0.000028 0.000012 -38.132444 0.001399 -20.631502 0.007678 0.000059 21.409028 -0.000005 -0.418178 0.418206 0.176516 -0.000014 0.000027 -38.123821 0.001401 20.628495 -0.007678 0.000058 -21.403518 0.000015 0.418178 0.418206 0.176516 -0.000015 -0.000037 50.578900 -0.127409 -100.991949 -0.105063 0.000220 54.543975 -0.000108 1.201610 -0.907799 -0.740094 -0.000000 0.000000 -0.000003 -1.201615 -0.907798 -0.740094 -0.000000 0.000000 0.000003 0.894161 1.147440 -0.047702 -0.000000 0.000000 14.999999 -1.201615 0.907850 -0.740094 -0.000000 0.000000 0.000003 
0.000011 0.000003 -0.228058 -0.000000 0.000000 3.750001 -0.418178 -0.418153 0.176516 0.000018 -0.000011 25.965126 0.001401 20.635176 -0.007681 0.000054 -20.322982 0.000012 0.418178 -0.418153 0.176516 0.000028 0.000012 -38.132444 0.001399 -20.631502 0.007678 0.000059 21.409028 -0.000005 -0.418178 0.418206 0.176516 -0.000014 0.000027 -38.123821 0.001401 20.628495 -0.007678 0.000058 -21.403518 0.000015 0.418178 0.418206 0.176516 -0.000015 -0.000037 50.578900 -0.127409 -100.991949 -0.105063 0.000220 54.543975 -0.000108 1.201610 -0.907799 -0.740094 -0.000000 0.000000 -0.000003 -1.201615 -0.907798 -0.740094 -0.000000 0.000000 0.000003 0.894161 1.147440 -0.047702 -0.000000 0.000000 14.999999 -1.201615 0.907850 -0.740094 -0.000000 0.000000 0.000003 
0.000011 0.000003 -0.228058 -0.000000 0.000000 6.250000 -0.418178 -0.418153 0.176516 0.000015 -0.000009 21.995825 0.001400 20.626019 -0.007679 0.000053 -19.737317 0.000006 0.418178 -0.418153 0.176516 0.000031 0.000013 -42.240516 0.001397 -20.628022 0.007673 0.000060 21.541252 -0.000004 -0.418178 0.418206 0.176516 -0.000015 0.000030 -42.231978 0.001401 20.625452 -0.007681 0.000059 -21.536814 0.000012 0.418178 0.418206 0.176516 -0.000011 -0.000053 70.581529 0.001398 -20.613393 0.007672 0.000051 19.292733 -0.000009 1.201610 -0.907799 -0.740094 -0.000000 0.000000 -0.000003 -1.201615 -0.907798 -0.740094 -0.000000 0.000000 0.000003 0.586712 1.387031 -0.740094 -0.000000 0.000000 29.999997 -1.201615 0.907850 -0.740094 -0.000000 0.000000 0.000003 
0.000011 0.000003 -0.228058 -0.000000 0.000000 7.500000 -0.418178 -0.418153 0.176516 0.000014 -0.000009 20.032250 0.001398 20.616970 -0.007675 0.000052 -19.402517 0.000010 0.418178 -0.418153 0.176516 0.000033 0.000013 -44.298199 0.001398 -20.627158 0.007678 0.000057 21.564760 -0.000010 -0.418178 0.418206 0.176516 -0.000015 0.000032 -44.289699 0.001399 20.624846 -0.007675 0.000058 -21.560824 0.000010 0.418178 0.418206 0.176516 -0.000012 -0.000051 68.622603 0.001400 -20.623553 0.007676 0.000052 19.636312 -0.000007 1.201610 -0.907799 -0.740094 -0.000000 0.000000 -0.000003 -1.201615 -0.907798 -0.740094 -0.000000 0.000000 0.000003 0.586712 1.387031 -0.740094 -0.000000 0.000000 29.999997 -1.201615 0.907850 -0.740094 -0.000000 0.000000 0.000003 
0.000011 0.000003 -0.228058 -0.000000 0.000000 7.500000 -0.418178 -0.418153 0.176516 0.000014 -0.000009 20.032250 0.001398 20.616970 -0.007675 0.000052 -19.402517 0.000010 0.418178 -0.418153 0.176516 0.000033 0.000013 -44.298199 0.001398 -20.627158 0.007678 0.000057 21.564760 -0.000010 -0.418178 0.418206 0.176516 -0.000015 0.000032 -44.289699 0.001399 20.624846 -0.007675 0.000058 -21.560824 0.000010 0.418178 0.418206 0.176516 -0.000012 -0.000051 68.622603 0.001400 -20.623553 0.007676 0.000052 19.636312 -0.000007 1.201610 -0.907799 -0.740094 -0.000000 0.000000 -0.000003 -1.201615 -0.907798 -0.740094 -0.000000 0.000000 0.000003 0.586712 1.387031 -0.740094 -0.000000 0.000000 29.999997 -1.201615 0.907850 -0.740094 -0.000000 0.000000 0.000003 
0.000011 0.000003 -0.228058 -0.000000 0.000000 10.000001 -0.418178 -0.418153 0.176516 0.000011 -0.000008 16.151738 0.001394 20.586883 -0.007661 0.000048 -18.649423 0.000005 0.418178 -0.418153 0.176516 0.000036 0.000012 -48.413593 0.001401 -20.634152 0.007679 0.000059 21.535554 -0.000009 -0.418178 0.418206 0.176516 -0.000011 0.000015 -23.490190 -0.158543 98.493425 0.136638 0.000202 -52.457260 0.000097 0.418178 0.418206 0.176516 -0.000013 -0.000048 64.661701 0.001401 -20.634355 0.007681 0.000053 20.239567 -0.000006 1.201610 -0.907799 -0.740094 -0.000000 0.000000 -0.000003 -1.201615 -0.907798 -0.740094 -0.000000 0.000000 0.000003 0.586712 1.387031 -0.740094 -0.000000 0.000000 29.999997 -1.348078 0.546634 -0.047702 -0.000000 0.000000 15.000000 
0.000011 0.000003 -0.228058 -0.000000 0.000000 10.000001 -0.418178 -0.418153 0.176516 0.000011 -0.000008 16.151738 0.001394 20.586883 -0.007661 0.000048 -18.649423 0.000005 0.418178 -0.418153 0.176516 0.000036 0.000012 -48.413593 0.001401 -20.634152 0.007679 0.000059 21.535554 -0.000009 -0.418178 0.418206 0.176516 -0.000011 0.000015 -23.490190 -0.158543 98.493425 0.136638 0.000202 -52.457260 0.000097 0.418178 0.418206 0.176516 -0.000013 -0.000048 64.661701 0.001401 -20.634355 0.007681 0.000053 20.239567 -0.000006 1.201610 -0.907799 -0.740094 -0.000000 0.000000 -0.000003 -1.201615 -0.907798 -0.740094 -0.000000 0.000000 0.000003 0.586712 1.387031 -0.740094 -0.000000 0.000000 29.999997 -1.348078 0.546634 -0.047702 -0.000000 0.000000 15.000000 
0.000011 0.000003 -0.228058 -0.000000 0.000000 12.500000 -0.418178 -0.418153 0.176516 0.000008 -0.000006 12.338459 0.001387 20.536571 -0.007641 0.000045 -17.785854 0.000007 0.418178 -0.418153 0.176516 0.000040 0.000012 -52.519401 0.001402 -20.634119 0.007682 0.000058 21.380237 -0.000018 -0.418178 0.418206 0.176516 -0.000003 0.000003 -4.924126 0.001362 20.354604 -0.007567 0.000039 -15.731556 0.000005 0.418178 0.418206 0.176516 -0.000014 -0.000045 60.650085 0.001401 -20.636302 0.007682 0.000054 20.730445 -0.000007 1.201610 -0.907799 -0.740094 -0.000000 0.000000 -0.000003 -1.201615 -0.907798 -0.740094 -0.000000 0.000000 0.000003 0.586712 1.387031 -0.740094 -0.000000 0.000000 29.999997 -1.494541 0.185418 -0.740094 -0.000000 0.000000 30.000004 
0.000011 0.000003 -0.228058 -0.000000 0.000000 12.500000 -0.418178 -0.418153 0.176516 0.000008 -0.000006 12.338459 0.001387 20.536571 -0.007641 0.000045 -17.785854 0.000007 0.418178 -0.418153 0.176516 0.000040 0.000012 -52.519401 0.001402 -20.634119 0.007682 0.000058 21.380237 -0.000018 -0.418178 0.418206 0.176516 -0.000003 0.000003 -4.924126 0.001362 20.354604 -0.007567 0.000039 -15.731556 0.000005 0.418178 0.418206 0.176516 -0.000014 -0.000045 60.650085 0.001401 -20.636302 0.007682 0.000054 20.730445 -0.000007 1.201610 -0.907799 -0.740094 -0.000000 0.000000 -0.000003 -1.201615 -0.907798 -0.740094 -0.000000 0.000000 0.000003 0.586712 1.387031 -0.740094 -0.000000 0.000000 29.999997 -1.494541 0.185418 -0.740094 -0.000000 0.000000 30.000004 
0.000011 0.000003 -0.228058 -0.000000 0.000000 14.999999 -0.418178 -0.418153 0.176516 0.000005 -0.000004 8.597367 0.001377 20.460854 -0.007612 0.000043 -16.812840 0.000007 0.418178 -0.418153 0.176516 0.000043 0.000011 -56.604308 0.001400 -20.636812 0.007680 0.000057 21.113732 -0.000010 -0.418178 0.418206 0.176516 -0.000005 0.000005 -8.589368 0.001376 20.460849 -0.007613 0.000043 -16.812869 0.000006 0.418178 0.418206 0.176516 -0.000014 -0.000042 56.596764 0.001401 -20.633443 0.007680 0.000056 21.108387 -0.000009 1.201610 -0.907799 -0.740094 -0.000000 0.000000 -0.000003 -1.201615 -0.907798 -0.740094 -0.000000 0.000000 0.000003 0.586712 1.387031 -0.740094 -0.000000 0.000000 29.999997 -1.494541 0.185418 -0.740094 -0.000000 0.000000 30.000004 
